<?xml version="1.0" encoding="utf-8"?>
<!-- Generator: Adobe Illustrator 16.0.0, SVG Export Plug-In . SVG Version: 6.00 Build 0)  -->
<!DOCTYPE svg PUBLIC "-//W3C//DTD SVG 1.1//EN" "http://www.w3.org/Graphics/SVG/1.1/DTD/svg11.dtd">
<svg version="1.1" id="Layer_1" xmlns="http://www.w3.org/2000/svg" xmlns:xlink="http://www.w3.org/1999/xlink" x="0px" y="0px"
	 width="40px" height="40px" viewBox="0 0 40 40" enable-background="new 0 0 40 40" xml:space="preserve">
<path fill="#FEBE2D" d="M39.826,15.956c-0.479-0.827-1.014-1.64-1.636-2.363c-5.853-6.8-13.375-9.022-22.045-7.835
	C9.658,6.645,4.492,9.808,0.754,15.225c-0.896,1.298-0.899,1.31-0.006,2.58c4.687,6.67,11.239,9.671,19.258,9.762
	c3.628,0.022,7.124-0.604,10.419-2.146c3.962-1.853,7.152-4.597,9.411-8.362C40,16.782,39.99,16.239,39.826,15.956z"/>
<path fill="#FEBE2D" d="M3.959,29.574c-0.504,0.66-1.45,0.787-2.111,0.282l0,0c-0.662-0.506-0.788-1.451-0.282-2.112l2.059-2.693
	c0.505-0.66,1.45-0.787,2.112-0.281l0,0c0.661,0.506,0.788,1.451,0.281,2.111L3.959,29.574z"/>
<path fill="#FEBE2D" d="M21.818,34.727c-0.007,0.831-0.686,1.502-1.518,1.495l0,0c-0.831-0.008-1.502-0.687-1.495-1.519l0.026-3.391
	c0.005-0.833,0.686-1.5,1.518-1.495l0,0c0.832,0.008,1.502,0.687,1.496,1.519L21.818,34.727z"/>
<path fill="#FEBE2D" d="M31.298,32.281c0.31,0.774-0.068,1.652-0.84,1.959l0,0c-0.773,0.31-1.651-0.068-1.959-0.84l-1.258-3.147
	c-0.31-0.773,0.067-1.648,0.839-1.958l0,0c0.774-0.31,1.649,0.068,1.959,0.84L31.298,32.281z"/>
<path fill="#FEBE2D" d="M12.231,33.436c-0.345,0.756-1.24,1.091-1.996,0.745l0,0c-0.758-0.347-1.091-1.24-0.745-1.997l1.409-3.083
	c0.345-0.757,1.238-1.091,1.996-0.745l0,0c0.756,0.347,1.089,1.239,0.744,1.997L12.231,33.436z"/>
<path fill="#FEBE2D" d="M38.629,27.844c0.476,0.682,0.308,1.62-0.375,2.096l0,0c-0.683,0.476-1.621,0.309-2.097-0.374l-1.938-2.781
	c-0.476-0.683-0.308-1.622,0.375-2.099l0,0c0.683-0.475,1.621-0.307,2.098,0.375L38.629,27.844z"/>
</svg>
