<?xml version="1.0" encoding="utf-8"?>
<!-- Generator: Adobe Illustrator 16.0.0, SVG Export Plug-In . SVG Version: 6.00 Build 0)  -->
<!DOCTYPE svg PUBLIC "-//W3C//DTD SVG 1.1//EN" "http://www.w3.org/Graphics/SVG/1.1/DTD/svg11.dtd">
<svg version="1.1" id="Layer_1" xmlns="http://www.w3.org/2000/svg" xmlns:xlink="http://www.w3.org/1999/xlink" x="0px" y="0px"
	 width="40px" height="40px" viewBox="0 0 40 40" enable-background="new 0 0 40 40" xml:space="preserve">
<g>
	<g>
		<g>
			<path fill-rule="evenodd" clip-rule="evenodd" fill="#FEBE2D" d="M19.952,34.742c-5.428,0-10.857,0.002-16.286-0.001
				c-2.336-0.002-3.521-1.183-3.523-3.517c-0.005-7.481-0.003-14.962,0-22.443c0-2.369,1.201-3.557,3.596-3.557
				c10.824-0.003,21.65-0.003,32.475,0c2.41,0,3.646,1.228,3.646,3.628c0.003,7.416,0.003,14.833,0,22.249
				c0,2.41-1.228,3.639-3.623,3.64C30.809,34.744,25.381,34.742,19.952,34.742z M2.961,7.989c0.382,0.365,0.583,0.574,0.801,0.763
				c4.926,4.289,9.853,8.58,14.786,12.863c1.101,0.955,2.609,0.925,3.7-0.069c4.664-4.246,9.32-8.499,13.975-12.753
				c0.238-0.218,0.445-0.471,0.76-0.803C25.585,7.989,14.385,7.989,2.961,7.989z M3.423,31.977c11.119,0,22.063,0,33.17,0
				c-3.913-3.575-7.696-7.031-11.512-10.519c-1.437,1.3-2.672,2.714-4.744,2.712c-2.108-0.002-3.298-1.584-4.818-2.713
				C11.501,24.951,7.518,28.415,3.423,31.977z M2.921,29.977c3.81-3.312,7.486-6.507,11.234-9.762
				c-3.733-3.249-7.425-6.458-11.234-9.773C2.921,17.008,2.921,23.396,2.921,29.977z M26.439,20.216
				c3.534,3.223,6.997,6.384,10.519,9.598c0-6.477,0-12.784,0-19.218C33.406,13.843,29.972,16.984,26.439,20.216z"/>
			<path fill-rule="evenodd" clip-rule="evenodd" fill="none" stroke="#FEBE2D" stroke-miterlimit="10" d="M2.961,7.989
				c11.424,0,22.624,0,34.021,0c-0.314,0.333-0.521,0.585-0.76,0.803c-4.654,4.254-9.311,8.507-13.975,12.753
				c-1.091,0.994-2.599,1.024-3.7,0.069c-4.934-4.283-9.86-8.574-14.786-12.863C3.545,8.562,3.343,8.354,2.961,7.989z"/>
			<path fill-rule="evenodd" clip-rule="evenodd" fill="none" stroke="#FEBE2D" stroke-miterlimit="10" d="M3.423,31.977
				c4.095-3.562,8.079-7.025,12.096-10.52c1.52,1.129,2.71,2.711,4.818,2.713c2.072,0.002,3.308-1.412,4.744-2.712
				c3.815,3.487,7.599,6.943,11.512,10.519C25.486,31.977,14.542,31.977,3.423,31.977z"/>
			<path fill-rule="evenodd" clip-rule="evenodd" fill="none" stroke="#FEBE2D" stroke-miterlimit="10" d="M2.921,29.977
				c0-6.581,0-12.968,0-19.535c3.81,3.315,7.501,6.525,11.234,9.773C10.407,23.47,6.73,26.665,2.921,29.977z"/>
			<path fill-rule="evenodd" clip-rule="evenodd" fill="none" stroke="#FEBE2D" stroke-miterlimit="10" d="M26.439,20.216
				c3.532-3.232,6.967-6.373,10.519-9.621c0,6.434,0,12.742,0,19.218C33.437,26.6,29.974,23.438,26.439,20.216z"/>
		</g>
	</g>
</g>
</svg>
