<?xml version="1.0" encoding="utf-8"?>
<!-- Generator: Adobe Illustrator 16.0.0, SVG Export Plug-In . SVG Version: 6.00 Build 0)  -->
<!DOCTYPE svg PUBLIC "-//W3C//DTD SVG 1.1//EN" "http://www.w3.org/Graphics/SVG/1.1/DTD/svg11.dtd">
<svg version="1.1" id="Layer_1" xmlns="http://www.w3.org/2000/svg" xmlns:xlink="http://www.w3.org/1999/xlink" x="0px" y="0px"
	 width="40px" height="40px" viewBox="0 0 40 40" enable-background="new 0 0 40 40" xml:space="preserve">
<g>
	<path fill-rule="evenodd" clip-rule="evenodd" fill="none" stroke="#000000" stroke-width="4" stroke-miterlimit="10" d="
		M37.771,33.428c0,1.037-0.84,1.873-1.873,1.873H4.105c-1.033,0-1.872-0.836-1.872-1.873V7.708c0-1.033,0.838-1.873,1.872-1.873
		h31.792c1.033,0,1.873,0.839,1.873,1.873V33.428z"/>
	<path stroke="#000000" stroke-width="2" stroke-miterlimit="10" d="M12.263,4.259c-0.006-0.763-0.63-1.376-1.393-1.371l0,0
		C10.107,2.895,9.494,3.518,9.5,4.28l0.023,3.11c0.006,0.764,0.628,1.376,1.392,1.371l0,0c0.764-0.007,1.376-0.63,1.371-1.392
		L12.263,4.259z"/>
	<path stroke="#000000" stroke-width="2" stroke-miterlimit="10" d="M31.333,4.271c-0.009-0.764-0.631-1.376-1.394-1.371l0,0
		c-0.765,0.005-1.377,0.628-1.371,1.392l0.022,3.108c0.005,0.764,0.629,1.376,1.392,1.371l0,0c0.765-0.006,1.378-0.629,1.371-1.393
		L31.333,4.271z"/>
	<path d="M10.953,14.163c0,0.981-0.797,1.777-1.778,1.777H6.969c-0.981,0-1.777-0.795-1.777-1.777v-2.206
		c0-0.98,0.796-1.777,1.777-1.777h2.206c0.981,0,1.778,0.797,1.778,1.777V14.163z"/>
	<path d="M18.769,14.163c0,0.981-0.796,1.777-1.777,1.777h-2.205c-0.982,0-1.777-0.795-1.777-1.777v-2.206
		c0-0.98,0.795-1.777,1.777-1.777h2.205c0.981,0,1.777,0.797,1.777,1.777V14.163z"/>
	<path d="M26.86,14.163c0,0.981-0.796,1.777-1.777,1.777h-2.206c-0.979,0-1.775-0.795-1.775-1.777v-2.206
		c0-0.98,0.796-1.777,1.775-1.777h2.206c0.981,0,1.777,0.797,1.777,1.777V14.163z"/>
	<path d="M34.808,14.163c0,0.981-0.798,1.777-1.777,1.777h-2.206c-0.982,0-1.776-0.795-1.776-1.777v-2.206
		c0-0.98,0.794-1.777,1.776-1.777h2.206c0.979,0,1.777,0.797,1.777,1.777V14.163z"/>
	<path d="M10.957,22.185c0,0.98-0.796,1.779-1.777,1.779H6.973c-0.981,0-1.777-0.799-1.777-1.779v-2.204
		c0-0.981,0.796-1.777,1.777-1.777h2.206c0.981,0,1.777,0.795,1.777,1.777V22.185z"/>
	<path d="M18.773,22.185c0,0.98-0.795,1.779-1.776,1.779h-2.206c-0.981,0-1.777-0.799-1.777-1.779v-2.204
		c0-0.981,0.796-1.777,1.777-1.777h2.206c0.981,0,1.776,0.795,1.776,1.777V22.185z"/>
	<path d="M26.864,22.185c0,0.98-0.794,1.779-1.775,1.779h-2.206c-0.982,0-1.778-0.799-1.778-1.779v-2.204
		c0-0.981,0.796-1.777,1.778-1.777h2.206c0.981,0,1.775,0.795,1.775,1.777V22.185z"/>
	<path d="M34.812,22.185c0,0.98-0.796,1.779-1.778,1.779h-2.206c-0.979,0-1.776-0.799-1.776-1.779v-2.204
		c0-0.981,0.797-1.777,1.776-1.777h2.206c0.982,0,1.778,0.795,1.778,1.777V22.185z"/>
	<path d="M10.957,30.209c0,0.98-0.796,1.777-1.777,1.777H6.973c-0.981,0-1.777-0.797-1.777-1.777v-2.205
		c0-0.98,0.796-1.777,1.777-1.777h2.206c0.981,0,1.777,0.797,1.777,1.777V30.209z"/>
	<path d="M18.773,30.209c0,0.98-0.795,1.777-1.776,1.777h-2.206c-0.981,0-1.777-0.797-1.777-1.777v-2.205
		c0-0.98,0.796-1.777,1.777-1.777h2.206c0.981,0,1.776,0.797,1.776,1.777V30.209z"/>
	<path d="M26.864,30.209c0,0.98-0.794,1.777-1.775,1.777h-2.206c-0.982,0-1.778-0.797-1.778-1.777v-2.205
		c0-0.98,0.796-1.777,1.778-1.777h2.206c0.981,0,1.775,0.797,1.775,1.777V30.209z"/>
	<path d="M34.812,30.209c0,0.98-0.796,1.777-1.778,1.777h-2.206c-0.979,0-1.776-0.797-1.776-1.777v-2.205
		c0-0.98,0.797-1.777,1.776-1.777h2.206c0.982,0,1.778,0.797,1.778,1.777V30.209z"/>
</g>
</svg>
