<?xml version="1.0" encoding="utf-8"?>
<!-- Generator: Adobe Illustrator 16.0.0, SVG Export Plug-In . SVG Version: 6.00 Build 0)  -->
<!DOCTYPE svg PUBLIC "-//W3C//DTD SVG 1.1//EN" "http://www.w3.org/Graphics/SVG/1.1/DTD/svg11.dtd">
<svg version="1.1" id="Layer_1" xmlns="http://www.w3.org/2000/svg" xmlns:xlink="http://www.w3.org/1999/xlink" x="0px" y="0px"
	 width="40px" height="40px" viewBox="0 0 40 40" enable-background="new 0 0 40 40" xml:space="preserve">
<g>
	<g>
		<g>
			<path fill-rule="evenodd" clip-rule="evenodd" fill="#3D4F5A" d="M19.989,35.801c-7.991-0.089-14.521-3.08-19.192-9.728
				c-0.89-1.267-0.887-1.277,0.006-2.57c3.725-5.4,8.874-8.552,15.34-9.437c8.641-1.183,16.138,1.032,21.97,7.809
				c0.619,0.72,1.153,1.531,1.629,2.354c0.163,0.283,0.176,0.824,0.009,1.1c-2.248,3.753-5.429,6.488-9.376,8.333
				C27.091,35.198,23.605,35.823,19.989,35.801z M19.992,33.546c4.886,0.01,8.779-3.847,8.827-8.739
				c0.044-4.784-3.886-8.759-8.693-8.791c-4.857-0.032-8.802,3.875-8.825,8.745C11.279,29.57,15.203,33.538,19.992,33.546z
				 M12.189,17.314c-0.054-0.014-0.119-0.051-0.163-0.035c-3.692,1.418-6.746,3.676-9.099,6.874
				c-0.339,0.461-0.363,0.784-0.015,1.259c1.539,2.104,3.399,3.861,5.636,5.188c1.134,0.673,2.353,1.204,3.531,1.801
				C8.163,27.477,8.41,21.769,12.189,17.314z M27.708,17.115c3.397,3.794,4.797,9.614,0.28,15.1
				c0.023,0.018,0.055,0.054,0.071,0.047c0.332-0.12,0.671-0.229,0.995-0.371c3.3-1.448,6.031-3.599,8.157-6.52
				c0.277-0.383,0.383-0.662,0.067-1.104C34.902,20.935,31.759,18.64,27.708,17.115z"/>
			<path fill-rule="evenodd" clip-rule="evenodd" fill="#3D4F5A" d="M20.107,18.04c3.705,0.012,6.751,3.076,6.73,6.769
				c-0.024,3.76-3.069,6.732-6.872,6.711c-3.667-0.022-6.666-3.037-6.683-6.719C13.266,21.07,16.337,18.027,20.107,18.04z
				 M22.117,20.913c-1.164-0.021-2.136,0.918-2.144,2.069c-0.007,1.097,0.932,2.066,2.037,2.098c1.163,0.033,2.104-0.895,2.11-2.081
				C24.127,21.843,23.254,20.935,22.117,20.913z"/>
			<path fill-rule="evenodd" clip-rule="evenodd" fill="none" d="M22.117,20.913c1.137,0.021,2.01,0.93,2.003,2.086
				c-0.006,1.187-0.947,2.114-2.11,2.081c-1.104-0.031-2.044-1.001-2.037-2.098C19.981,21.831,20.954,20.892,22.117,20.913z"/>
		</g>
	</g>
</g>
<path fill="#3D4F5A" stroke="#3D4F5A" stroke-miterlimit="10" d="M3.698,11.911c-0.503-0.659-1.445-0.785-2.105-0.281l0,0
	c-0.658,0.503-0.783,1.446-0.28,2.104l2.05,2.685c0.503,0.659,1.446,0.785,2.105,0.281l0,0c0.66-0.504,0.785-1.446,0.282-2.105
	L3.698,11.911z"/>
<path fill="#3D4F5A" stroke="#3D4F5A" stroke-miterlimit="10" d="M21.497,6.776c-0.007-0.83-0.684-1.497-1.514-1.49l0,0
	c-0.829,0.006-1.496,0.684-1.489,1.513l0.025,3.378c0.006,0.83,0.683,1.496,1.512,1.49l0,0c0.831-0.007,1.497-0.684,1.49-1.513
	L21.497,6.776z"/>
<path fill="#3D4F5A" stroke="#3D4F5A" stroke-miterlimit="10" d="M30.944,9.211c0.306-0.771-0.067-1.645-0.839-1.952l0,0
	c-0.77-0.308-1.644,0.067-1.951,0.837l-1.253,3.138c-0.309,0.77,0.065,1.644,0.837,1.951l0,0c0.77,0.308,1.644-0.067,1.951-0.837
	L30.944,9.211z"/>
<path fill="#3D4F5A" stroke="#3D4F5A" stroke-miterlimit="10" d="M11.941,8.063c-0.344-0.755-1.234-1.087-1.989-0.743l0,0
	C9.198,7.665,8.866,8.556,9.211,9.31l1.402,3.072c0.344,0.755,1.235,1.087,1.989,0.743l0,0c0.755-0.345,1.087-1.236,0.743-1.99
	L11.941,8.063z"/>
<path fill="#3D4F5A" stroke="#3D4F5A" stroke-miterlimit="10" d="M38.25,13.636c0.475-0.68,0.308-1.616-0.373-2.09l0,0
	c-0.68-0.474-1.616-0.307-2.09,0.374l-1.931,2.772c-0.477,0.681-0.309,1.617,0.371,2.09l0,0c0.683,0.474,1.617,0.306,2.092-0.374
	L38.25,13.636z"/>
</svg>
