<?xml version="1.0" encoding="utf-8"?>
<!-- Generator: Adobe Illustrator 16.0.0, SVG Export Plug-In . SVG Version: 6.00 Build 0)  -->
<!DOCTYPE svg PUBLIC "-//W3C//DTD SVG 1.1//EN" "http://www.w3.org/Graphics/SVG/1.1/DTD/svg11.dtd">
<svg version="1.1" id="Layer_1" xmlns="http://www.w3.org/2000/svg" xmlns:xlink="http://www.w3.org/1999/xlink" x="0px" y="0px"
	 width="40px" height="40px" viewBox="0 0 40 40" enable-background="new 0 0 40 40" xml:space="preserve">
<g>
	<g>
		<g>
			<path fill-rule="evenodd" clip-rule="evenodd" stroke="#000000" stroke-miterlimit="10" d="M7.817,36.069
				c8.144,0,16.166,0,24.301,0c0.02-0.4,0.056-0.77,0.056-1.141c0.008-2.006-0.016-4.01,0.014-6.016
				c0.016-1.129,0.686-1.812,1.646-1.789c0.916,0.023,1.51,0.678,1.521,1.785c0.021,2.779,0.016,5.561,0.002,8.338
				c-0.004,1.584-0.51,2.078-2.101,2.08c-8.247,0.004-16.494,0-24.739,0c-0.634,0-1.269,0.014-1.902-0.002
				c-1.331-0.027-1.953-0.621-1.962-1.93c-0.017-2.781-0.017-5.561,0-8.34c0.007-1.219,0.637-1.938,1.621-1.934
				c0.992,0.006,1.535,0.684,1.541,1.965C7.823,31.374,7.817,33.657,7.817,36.069z"/>
		</g>
	</g>
</g>
<g>
	<g id="xURkqP_1_">
		<g>
			<path fill-rule="evenodd" clip-rule="evenodd" stroke="#000000" stroke-miterlimit="10" d="M20.056,22.831
				c3.166-3.165,6.208-6.211,9.254-9.259c0.228-0.23,0.443-0.474,0.691-0.678c0.82-0.681,1.752-0.687,2.436-0.033
				c0.713,0.685,0.711,1.645-0.01,2.512c-0.139,0.165-0.3,0.31-0.454,0.463c-3.4,3.402-6.799,6.807-10.204,10.206
				c-1.307,1.301-2.095,1.312-3.377,0.033c-3.432-3.422-6.857-6.852-10.284-10.28c-0.076-0.078-0.155-0.15-0.229-0.229
				c-0.881-0.947-0.963-1.917-0.226-2.667c0.735-0.753,1.751-0.705,2.664,0.188c1.591,1.554,3.154,3.141,4.727,4.716
				C16.689,19.45,18.331,21.099,20.056,22.831z"/>
		</g>
	</g>
	
		<line fill-rule="evenodd" clip-rule="evenodd" stroke="#000000" stroke-width="5" stroke-linecap="round" stroke-miterlimit="10" x1="20.061" y1="22.831" x2="20.061" y2="2.502"/>
</g>
</svg>
