<?xml version="1.0" encoding="utf-8"?>
<!-- Generator: Adobe Illustrator 16.0.0, SVG Export Plug-In . SVG Version: 6.00 Build 0)  -->
<!DOCTYPE svg PUBLIC "-//W3C//DTD SVG 1.1//EN" "http://www.w3.org/Graphics/SVG/1.1/DTD/svg11.dtd">
<svg version="1.1" id="Layer_1" xmlns="http://www.w3.org/2000/svg" xmlns:xlink="http://www.w3.org/1999/xlink" x="0px" y="0px"
	 width="40px" height="40px" viewBox="0 0 40 40" enable-background="new 0 0 40 40" xml:space="preserve">
<g>
	<g>
		<g>
			<path fill-rule="evenodd" clip-rule="evenodd" fill="#FEBE2D" d="M19.989,35.527c-7.942-0.089-14.43-3.062-19.073-9.667
				c-0.884-1.258-0.881-1.27,0.006-2.555c3.702-5.366,8.818-8.498,15.244-9.377c8.586-1.175,16.037,1.026,21.833,7.759
				c0.615,0.717,1.146,1.521,1.619,2.341c0.162,0.281,0.174,0.818,0.01,1.093c-2.235,3.73-5.396,6.447-9.319,8.281
				C27.045,34.93,23.583,35.55,19.989,35.527z M19.991,33.287c4.855,0.01,8.725-3.824,8.771-8.685
				c0.045-4.755-3.86-8.705-8.638-8.736c-4.827-0.032-8.747,3.852-8.77,8.691C11.333,29.336,15.233,33.278,19.991,33.287z
				 M12.238,17.156c-0.054-0.013-0.118-0.05-0.162-0.034c-3.669,1.409-6.704,3.652-9.042,6.83c-0.337,0.458-0.361,0.78-0.016,1.251
				c1.529,2.093,3.378,3.837,5.601,5.156c1.127,0.668,2.337,1.197,3.509,1.789C8.236,27.255,8.481,21.582,12.238,17.156z
				 M27.66,16.958c3.375,3.771,4.766,9.555,0.277,15.005c0.023,0.017,0.055,0.053,0.071,0.047c0.33-0.12,0.667-0.227,0.988-0.368
				c3.279-1.439,5.994-3.577,8.106-6.479c0.275-0.38,0.381-0.658,0.067-1.097C34.809,20.754,31.685,18.473,27.66,16.958z"/>
			<path fill-rule="evenodd" clip-rule="evenodd" fill="#FEBE2D" d="M20.106,17.877c3.682,0.012,6.709,3.057,6.688,6.726
				c-0.024,3.736-3.05,6.69-6.83,6.669c-3.644-0.022-6.623-3.018-6.64-6.677C13.307,20.89,16.359,17.865,20.106,17.877z
				 M22.103,20.732c-1.155-0.021-2.123,0.912-2.129,2.056c-0.009,1.091,0.925,2.054,2.023,2.086
				c1.156,0.032,2.092-0.889,2.098-2.068C24.101,21.656,23.233,20.754,22.103,20.732z"/>
			<path fill-rule="evenodd" clip-rule="evenodd" fill="none" d="M22.103,20.732c1.131,0.021,1.998,0.924,1.991,2.073
				c-0.006,1.18-0.941,2.101-2.098,2.068c-1.098-0.032-2.032-0.995-2.023-2.086C19.98,21.645,20.947,20.711,22.103,20.732z"/>
		</g>
	</g>
</g>
<path fill="#FEBE2D" stroke="#FEBE2D" stroke-miterlimit="10" d="M3.799,11.786c-0.5-0.654-1.436-0.78-2.092-0.279l0,0
	c-0.654,0.5-0.779,1.437-0.278,2.091l2.038,2.667c0.5,0.655,1.438,0.78,2.092,0.28l0,0c0.656-0.501,0.78-1.438,0.279-2.092
	L3.799,11.786z"/>
<path fill="#FEBE2D" stroke="#FEBE2D" stroke-miterlimit="10" d="M21.486,6.684c-0.007-0.824-0.679-1.487-1.504-1.481l0,0
	c-0.824,0.006-1.486,0.68-1.479,1.504l0.025,3.357c0.006,0.825,0.68,1.487,1.503,1.481l0,0c0.825-0.007,1.487-0.68,1.48-1.503
	L21.486,6.684z"/>
<path fill="#FEBE2D" stroke="#FEBE2D" stroke-miterlimit="10" d="M30.875,9.104c0.305-0.766-0.067-1.634-0.834-1.94l0,0
	c-0.764-0.305-1.632,0.067-1.938,0.832l-1.245,3.118c-0.306,0.765,0.065,1.633,0.832,1.939l0,0c0.764,0.306,1.633-0.067,1.938-0.832
	L30.875,9.104z"/>
<path fill="#FEBE2D" stroke="#FEBE2D" stroke-miterlimit="10" d="M11.991,7.963c-0.342-0.75-1.226-1.081-1.977-0.738l0,0
	C9.265,7.567,8.935,8.453,9.277,9.202l1.394,3.053c0.342,0.75,1.228,1.08,1.977,0.738l0,0c0.751-0.343,1.08-1.229,0.738-1.978
	L11.991,7.963z"/>
<path fill="#FEBE2D" stroke="#FEBE2D" stroke-miterlimit="10" d="M38.136,13.501c0.471-0.676,0.305-1.606-0.371-2.077l0,0
	c-0.677-0.471-1.605-0.305-2.077,0.371l-1.919,2.754c-0.473,0.676-0.307,1.606,0.369,2.078l0,0c0.679,0.471,1.608,0.304,2.078-0.371
	L38.136,13.501z"/>
</svg>
