<?xml version="1.0" encoding="utf-8"?>
<!-- Generator: Adobe Illustrator 16.0.0, SVG Export Plug-In . SVG Version: 6.00 Build 0)  -->
<!DOCTYPE svg PUBLIC "-//W3C//DTD SVG 1.1//EN" "http://www.w3.org/Graphics/SVG/1.1/DTD/svg11.dtd">
<svg version="1.1" id="Layer_1" xmlns="http://www.w3.org/2000/svg" xmlns:xlink="http://www.w3.org/1999/xlink" x="0px" y="0px"
	 width="40px" height="40px" viewBox="0 0 40 40" enable-background="new 0 0 40 40" xml:space="preserve">
<path stroke="#000000" stroke-miterlimit="10" d="M13.323,32.879l-0.552,0.001c-2.13,0.002-4.261,0.021-6.392-0.001
	c-0.62-0.008-1.265-0.069-1.856-0.251c-1.366-0.421-1.916-1.638-1.259-2.911c0.479-0.922,1.125-1.759,1.721-2.617
	c0.661-0.953,1.381-1.867,2.021-2.836c0.768-1.169,1.134-2.46,1.117-3.885c-0.032-2.76-0.142-5.529,0.036-8.276
	c0.296-4.581,2.394-8.176,6.549-10.314c5.389-2.773,11.976-0.571,14.947,4.881c1.044,1.924,1.583,3.977,1.604,6.16
	c0.021,2.371,0.079,4.746-0.003,7.116c-0.072,2.004,0.545,3.745,1.686,5.329c0.742,1.032,1.57,2.007,2.34,3.02
	c0.359,0.476,0.721,0.96,0.988,1.487c0.689,1.346,0.105,2.584-1.367,2.924c-0.48,0.11-0.992,0.14-1.486,0.145
	c-2.196,0.017-4.389,0.011-6.584,0.014l-0.554,0.001c-0.087,2.064-0.867,3.76-2.447,5.039c-1.239,1.001-2.669,1.477-4.264,1.429
	C16.398,39.23,13.432,36.644,13.323,32.879 M33.505,30.265c-0.135-0.179-0.225-0.301-0.32-0.423
	c-0.666-0.829-1.352-1.644-1.993-2.491c-1.678-2.21-2.637-4.646-2.527-7.49c0.09-2.398,0.028-4.805-0.004-7.211
	c-0.027-2.087-0.673-3.988-1.868-5.703c-3.162-4.535-9.565-5.046-13.379-1.05c-1.91,2.003-2.723,4.451-2.74,7.184
	c-0.015,2.389-0.052,4.778,0.019,7.163c0.063,2.071-0.534,3.915-1.661,5.604c-0.814,1.216-1.704,2.388-2.559,3.579
	c-0.191,0.27-0.375,0.544-0.601,0.872L33.505,30.265z M15.833,32.911c-0.125,2.093,1.747,3.928,3.949,3.905
	c2.079-0.021,3.928-1.913,3.782-3.916L15.833,32.911z"/>
</svg>
