<?xml version="1.0" encoding="utf-8"?>
<!-- Generator: Adobe Illustrator 16.0.0, SVG Export Plug-In . SVG Version: 6.00 Build 0)  -->
<!DOCTYPE svg PUBLIC "-//W3C//DTD SVG 1.1//EN" "http://www.w3.org/Graphics/SVG/1.1/DTD/svg11.dtd">
<svg version="1.1" id="Layer_1" xmlns="http://www.w3.org/2000/svg" xmlns:xlink="http://www.w3.org/1999/xlink" x="0px" y="0px"
	 width="40px" height="40px" viewBox="0 0 40 40" enable-background="new 0 0 40 40" xml:space="preserve">
<g>
	<g id="XMLID_1_">
		<g>
			<path fill="#3D4F5A" d="M36.96,29.81c0-6.47,0-12.78,0-19.209c-3.55,3.24-6.99,6.38-10.52,9.62
				C29.97,23.44,33.44,26.6,36.96,29.81z M3.74,5.22c10.82,0,21.649,0,32.47,0c2.41,0,3.65,1.23,3.65,3.63c0,7.42,0,14.84,0,22.25
				c0,2.41-1.23,3.641-3.62,3.641c-5.431,0-10.86,0-16.29,0c-5.43,0-10.86,0-16.28,0c-2.34,0-3.53-1.181-3.53-3.521
				c0-7.479,0-14.96,0-22.44C0.14,6.41,1.34,5.22,3.74,5.22z M14.16,20.21c-3.74-3.24-7.43-6.45-11.24-9.77c0,6.57,0,12.96,0,19.541
				C6.73,26.67,10.41,23.47,14.16,20.21z M18.55,21.61c1.1,0.96,2.61,0.93,3.7-0.07c4.66-4.24,9.32-8.49,13.97-12.75
				c0.24-0.22,0.45-0.47,0.761-0.8c-11.4,0-22.59,0-34.021,0c0.38,0.36,0.58,0.57,0.8,0.76C8.69,13.04,13.61,17.33,18.55,21.61z
				 M25.08,21.46c-1.44,1.3-2.67,2.71-4.74,2.71c-2.11,0-3.3-1.58-4.82-2.71c-4.02,3.49-8,6.96-12.1,10.521c11.12,0,22.07,0,33.17,0
				C32.68,28.4,28.9,24.95,25.08,21.46z"/>
		</g>
		<g>
		</g>
	</g>
	<path fill-rule="evenodd" clip-rule="evenodd" fill="none" stroke="#3D4F5A" stroke-miterlimit="10" d="M2.961,7.989
		c11.424,0,22.624,0,34.021,0c-0.314,0.333-0.521,0.585-0.76,0.803c-4.654,4.254-9.311,8.507-13.975,12.753
		c-1.091,0.994-2.599,1.024-3.7,0.069c-4.934-4.283-9.86-8.574-14.786-12.863C3.545,8.562,3.343,8.354,2.961,7.989z"/>
	<path fill-rule="evenodd" clip-rule="evenodd" fill="none" stroke="#3D4F5A" stroke-miterlimit="10" d="M3.423,31.977
		c4.095-3.562,8.079-7.025,12.096-10.52c1.52,1.129,2.71,2.711,4.818,2.713c2.072,0.002,3.308-1.412,4.744-2.712
		c3.815,3.487,7.599,6.943,11.512,10.519C25.486,31.977,14.542,31.977,3.423,31.977z"/>
	<path fill-rule="evenodd" clip-rule="evenodd" fill="none" stroke="#3D4F5A" stroke-miterlimit="10" d="M2.921,29.977
		c0-6.581,0-12.968,0-19.535c3.81,3.315,7.501,6.525,11.234,9.773C10.407,23.47,6.73,26.665,2.921,29.977z"/>
	<path fill-rule="evenodd" clip-rule="evenodd" fill="none" stroke="#3D4F5A" stroke-miterlimit="10" d="M26.439,20.216
		c3.532-3.232,6.967-6.373,10.519-9.621c0,6.434,0,12.742,0,19.218C33.437,26.6,29.974,23.438,26.439,20.216z"/>
</g>
</svg>
