<?xml version="1.0" encoding="utf-8"?>
<!-- Generator: Adobe Illustrator 16.0.0, SVG Export Plug-In . SVG Version: 6.00 Build 0)  -->
<!DOCTYPE svg PUBLIC "-//W3C//DTD SVG 1.1//EN" "http://www.w3.org/Graphics/SVG/1.1/DTD/svg11.dtd">
<svg version="1.1" id="Layer_1" xmlns="http://www.w3.org/2000/svg" xmlns:xlink="http://www.w3.org/1999/xlink" x="0px" y="0px"
	 width="40px" height="40px" viewBox="0 0 40 40" enable-background="new 0 0 40 40" xml:space="preserve">
<path fill="#3D4F5A" d="M39.712,15.725c-0.477-0.826-1.012-1.637-1.633-2.358c-5.838-6.784-13.344-9.001-21.994-7.817
	C9.613,6.435,4.459,9.59,0.73,14.995c-0.894,1.295-0.897,1.306-0.006,2.573c4.676,6.654,11.212,9.647,19.212,9.738
	c3.621,0.022,7.109-0.603,10.396-2.141c3.952-1.848,7.136-4.585,9.389-8.342C39.886,16.549,39.875,16.007,39.712,15.725z"/>
<path fill="#3D4F5A" d="M3.927,29.31c-0.503,0.661-1.446,0.786-2.105,0.281l0,0c-0.661-0.504-0.786-1.446-0.282-2.106l2.054-2.687
	c0.504-0.659,1.447-0.786,2.107-0.281l0,0c0.659,0.504,0.786,1.447,0.28,2.106L3.927,29.31z"/>
<path fill="#3D4F5A" d="M21.745,34.45c-0.006,0.83-0.684,1.498-1.514,1.491l0,0c-0.83-0.006-1.498-0.684-1.492-1.514l0.027-3.383
	c0.004-0.83,0.684-1.498,1.514-1.491l0,0c0.831,0.006,1.499,0.685,1.493,1.514L21.745,34.45z"/>
<path fill="#3D4F5A" d="M31.203,32.012c0.309,0.771-0.067,1.646-0.838,1.954l0,0c-0.771,0.309-1.647-0.067-1.954-0.839l-1.256-3.14
	c-0.309-0.771,0.068-1.645,0.839-1.953l0,0c0.771-0.309,1.645,0.066,1.953,0.837L31.203,32.012z"/>
<path fill="#3D4F5A" d="M12.181,33.161c-0.345,0.756-1.237,1.09-1.992,0.744l0,0c-0.755-0.345-1.087-1.237-0.743-1.992l1.406-3.075
	c0.345-0.755,1.235-1.088,1.992-0.744l0,0c0.754,0.345,1.086,1.238,0.742,1.992L12.181,33.161z"/>
<path fill="#3D4F5A" d="M38.517,27.583c0.475,0.681,0.308,1.617-0.374,2.092l0,0c-0.681,0.475-1.617,0.308-2.091-0.373l-1.934-2.775
	c-0.475-0.682-0.307-1.618,0.374-2.092l0,0c0.681-0.477,1.617-0.307,2.093,0.373L38.517,27.583z"/>
</svg>
