<?xml version="1.0" encoding="utf-8"?>
<!-- Generator: Adobe Illustrator 16.0.0, SVG Export Plug-In . SVG Version: 6.00 Build 0)  -->
<!DOCTYPE svg PUBLIC "-//W3C//DTD SVG 1.1//EN" "http://www.w3.org/Graphics/SVG/1.1/DTD/svg11.dtd">
<svg version="1.1" id="Layer_1" xmlns="http://www.w3.org/2000/svg" xmlns:xlink="http://www.w3.org/1999/xlink" x="0px" y="0px"
	 width="40px" height="40px" viewBox="0 0 40 40" enable-background="new 0 0 40 40" xml:space="preserve">
<g>
	<g id="xURkqP_21_">
		<g>
			<path fill-rule="evenodd" clip-rule="evenodd" fill="#FEBE2D" d="M33.458,20.007c-4.794-4.791-9.405-9.401-14.021-14.015
				c-0.348-0.345-0.718-0.672-1.026-1.048c-1.032-1.243-1.04-2.652-0.05-3.686c1.037-1.082,2.491-1.079,3.805,0.014
				c0.247,0.208,0.468,0.454,0.699,0.686c5.152,5.151,10.312,10.3,15.454,15.458c1.973,1.977,1.99,3.171,0.055,5.112
				c-5.185,5.197-10.382,10.386-15.572,15.576c-0.116,0.115-0.228,0.236-0.346,0.346c-1.436,1.337-2.905,1.462-4.042,0.344
				c-1.14-1.112-1.067-2.653,0.284-4.033c2.355-2.41,4.758-4.778,7.144-7.16C28.335,25.108,30.836,22.621,33.458,20.007z"/>
		</g>
	</g>
	
		<line fill-rule="evenodd" clip-rule="evenodd" fill="#FEBE2D" stroke="#FCBD2C" stroke-width="5" stroke-linecap="round" stroke-miterlimit="10" x1="33.458" y1="20" x2="2.668" y2="20"/>
</g>
</svg>
