<?xml version="1.0" encoding="utf-8"?>
<!-- Generator: Adobe Illustrator 16.0.0, SVG Export Plug-In . SVG Version: 6.00 Build 0)  -->
<!DOCTYPE svg PUBLIC "-//W3C//DTD SVG 1.1//EN" "http://www.w3.org/Graphics/SVG/1.1/DTD/svg11.dtd">
<svg version="1.1" id="Layer_1" xmlns="http://www.w3.org/2000/svg" xmlns:xlink="http://www.w3.org/1999/xlink" x="0px" y="0px"
	 width="40px" height="40px" viewBox="0 0 40 40" enable-background="new 0 0 40 40" xml:space="preserve">
<path fill="#3D4F5A" stroke="#3D4F5A" stroke-width="2" stroke-linecap="round" stroke-linejoin="round" stroke-miterlimit="10" d="
	M1.158,20.139C1.218,11.653,6.716,4.21,14.621,1.957c6.337-1.81,12.171-0.662,17.309,3.465c3.929,3.154,6.286,7.316,6.792,12.344
	c0.804,8.001-2.439,14.085-9.197,18.32c-2.996,1.874-6.336,2.776-9.858,2.788c-6.749,0.025-11.951-2.9-15.579-8.564
	C2.093,27.193,1.194,23.728,1.158,20.139 M32.165,31.749c0.108-0.096,0.186-0.154,0.252-0.225c3.899-4.239,5.411-9.204,4.309-14.855
	C35.018,7.904,26.781,1.992,17.917,3.117c-5.152,0.657-9.214,3.198-12.082,7.51C1.831,16.646,2.059,24.504,6.295,30.37
	c0.326,0.453,0.694,0.881,1.085,1.373c0.688-4.512,2.885-7.855,6.927-9.896c-3.358-3.333-2.998-8.2-0.209-11.032
	c2.878-2.921,7.409-3.124,10.545-0.502c3.15,2.633,3.981,8.039,0.328,11.552c1.959,0.933,3.585,2.255,4.855,4.005
	C31.093,27.62,31.861,29.567,32.165,31.749 M19.093,37.084c4.172-0.078,7.693-1.241,10.762-3.339
	c0.459-0.312,0.708-0.632,0.565-1.199c-0.064-0.255-0.048-0.526-0.094-0.787c-0.724-4.105-2.979-6.986-6.87-8.535
	c-0.172-0.069-0.425-0.042-0.598,0.033c-2.158,0.942-4.306,0.944-6.461-0.005c-0.172-0.076-0.421-0.087-0.598-0.022
	c-1.116,0.395-2.128,0.985-3.017,1.775c-2.436,2.164-3.563,4.926-3.65,8.144c-0.004,0.165,0.159,0.382,0.305,0.499
	C12.442,36.006,15.868,37.116,19.093,37.084 M19.636,10.3c-3.285,0-5.922,2.642-5.919,5.924c0.004,3.263,2.644,5.91,5.896,5.918
	c3.27,0.012,5.936-2.645,5.94-5.913C25.555,12.943,22.916,10.3,19.636,10.3"/>
</svg>
