<?xml version="1.0" encoding="utf-8"?>
<!-- Generator: Adobe Illustrator 16.0.0, SVG Export Plug-In . SVG Version: 6.00 Build 0)  -->
<!DOCTYPE svg PUBLIC "-//W3C//DTD SVG 1.1//EN" "http://www.w3.org/Graphics/SVG/1.1/DTD/svg11.dtd">
<svg version="1.1" id="Layer_1" xmlns="http://www.w3.org/2000/svg" xmlns:xlink="http://www.w3.org/1999/xlink" x="0px" y="0px"
	 width="40px" height="40px" viewBox="0 0 40 40" enable-background="new 0 0 40 40" xml:space="preserve">
<g>
	<g>
		<g>
			<path fill-rule="evenodd" clip-rule="evenodd" stroke="#000000" stroke-miterlimit="10" d="M37.729,28.017
				c-1.908-1.545-3.809-3.099-5.744-4.606c-0.543-0.421-0.738-0.865-0.734-1.544c0.023-6.44,0.027-12.88-0.006-19.32
				c0-0.258-0.059-0.516-0.133-0.774c-0.152-0.226-0.303-0.452-0.451-0.68c-0.365-0.148-0.75-0.268-1.145-0.347H2.047
				C1.711,0.892,1.43,1.08,1.184,1.29C1.025,1.577,0.879,1.865,0.879,2.154C0.847,14.148,0.852,26.143,0.854,38.136
				c0.001,1.156,0.308,1.382,1.435,1.115c9.017-2.135,18.031-4.267,27.047-6.401c1.793-0.425,1.791-0.429,1.965-2.266
				c0.004-0.041,0.098-0.075,0.199-0.146c0.594,0.481,1.193,0.981,1.811,1.459c0.512,0.396,1.008,0.834,1.576,1.13
				c2.008,1.046,4.211,0.191,4.402-1.741C39.422,29.946,38.764,28.856,37.729,28.017z M4.911,36.968
				c-0.032-0.048-0.064-0.096-0.098-0.144c0.559-0.434,1.108-0.876,1.673-1.297c3.916-2.906,7.829-5.816,11.762-8.698
				c0.271-0.198,0.805-0.356,1.055-0.226c2.889,1.526,5.745,3.111,8.893,4.836C20.246,33.326,12.578,35.147,4.911,36.968z
				 M29.473,30.26c-1.238-0.673-2.477-1.34-3.711-2.017c-2.004-1.095-4.025-2.162-6-3.309c-0.735-0.427-1.262-0.367-1.932,0.135
				C13.083,28.63,8.31,32.155,3.544,35.69c-0.293,0.218-0.6,0.418-1.002,0.697V2.582h27.017v18.865
				c-2.082-1.673-4.033-3.247-5.994-4.812c-1.707-1.363-3.762-1.88-5.842-2.268c-0.95-0.179-1.389,0.443-1.092,1.348
				c0.073,0.22,0.141,0.44,0.257,0.805h-1.674c-2.494,0-4.988-0.001-7.481,0c-0.643,0-1.455-0.122-1.489,0.797
				c-0.037,0.968,0.794,0.826,1.429,0.827c3.075,0.004,6.149,0.02,9.222-0.014c0.626-0.006,0.938,0.195,1.276,0.728
				c0.654,1.035,1.449,1.977,2.206,2.983c-0.26,0.012-0.617,0.041-0.975,0.042c-3.895,0.003-7.788-0.002-11.681,0.007
				c-0.335,0-0.726-0.018-0.99,0.14c-0.243,0.146-0.493,0.532-0.468,0.787c0.023,0.242,0.364,0.518,0.63,0.651
				c0.222,0.114,0.534,0.051,0.807,0.051c4.304,0.002,8.608,0.012,12.914-0.013c0.537-0.003,1.074-0.197,1.83-0.345
				c2.135,1.717,4.49,3.57,6.781,5.501c0.332,0.278,0.35,0.924,0.51,1.401C29.646,30.129,29.561,30.193,29.473,30.26z M32.693,29.31
				c-4.121-3.314-8.178-6.48-12.1-9.805c-0.93-0.787-1.401-2.108-2.083-3.184c0.082-0.103,0.166-0.207,0.248-0.31
				c1.282,0.649,2.696,1.125,3.819,1.981c3.76,2.88,7.416,5.895,11.111,8.862c0.207,0.166,0.393,0.359,0.615,0.563
				C33.77,28.047,33.266,28.638,32.693,29.31z M37.068,31.805c-1.031,0.353-1.703-0.353-2.471-1.014
				c0.564-0.666,1.045-1.234,1.566-1.85c0.787,0.494,1.557,0.976,1.572,1.967C37.738,31.215,37.369,31.702,37.068,31.805z"/>
			<path fill-rule="evenodd" clip-rule="evenodd" stroke="#000000" stroke-miterlimit="10" d="M15.354,12.796
				c-2.631,0-5.261-0.007-7.892,0.004c-0.639,0.003-1.237-0.091-1.228-0.866c0.007-0.717,0.596-0.811,1.184-0.811
				c5.331,0.002,10.659,0.002,15.989,0c0.594,0,1.178,0.106,1.182,0.817c0.002,0.768-0.598,0.864-1.238,0.861
				C20.684,12.789,18.019,12.796,15.354,12.796z"/>
			<path fill-rule="evenodd" clip-rule="evenodd" stroke="#000000" stroke-miterlimit="10" d="M15.413,5.775
				c2.626,0,5.253,0.002,7.88-0.001c0.609,0,1.268,0.03,1.293,0.804c0.025,0.802-0.652,0.836-1.252,0.836
				c-5.288,0.003-10.574,0.003-15.859,0c-0.602,0-1.274-0.037-1.241-0.845c0.034-0.781,0.698-0.794,1.301-0.794
				C10.161,5.776,12.789,5.775,15.413,5.775z"/>
		</g>
	</g>
</g>
<path d="M18.083,17.458H6.729c-0.548,0-0.548,0.85,0,0.85h11.355C18.632,18.309,18.632,17.458,18.083,17.458z"/>
<g>
	<g>
		<path fill="none" stroke="#000000" stroke-miterlimit="10" d="M30.904,1.744"/>
	</g>
</g>
<g>
	<g>
		<path fill="none" stroke="#000000" stroke-miterlimit="10" d="M33.135,11.082"/>
	</g>
</g>
<path d="M24.285,22.914h-3.32c-0.031,0-0.053,0.012-0.08,0.017c-0.08-0.007-0.16-0.008-0.242-0.017
	c-0.545-0.057-0.539,0.795,0,0.853c0.893,0.092,1.783,0.106,2.678,0.106c0.119,0,0.207-0.045,0.275-0.106h0.689
	C24.834,23.767,24.834,22.914,24.285,22.914z"/>
</svg>
