<?xml version="1.0" encoding="utf-8"?>
<!-- Generator: Adobe Illustrator 16.0.0, SVG Export Plug-In . SVG Version: 6.00 Build 0)  -->
<!DOCTYPE svg PUBLIC "-//W3C//DTD SVG 1.1//EN" "http://www.w3.org/Graphics/SVG/1.1/DTD/svg11.dtd">
<svg version="1.1" id="Layer_1" xmlns="http://www.w3.org/2000/svg" xmlns:xlink="http://www.w3.org/1999/xlink" x="0px" y="0px"
	 width="40px" height="40px" viewBox="0 0 40 40" enable-background="new 0 0 40 40" xml:space="preserve">
<g id="xURkqP_20_">
	<g>
		
			<path fill-rule="evenodd" clip-rule="evenodd" fill="#3D4F5A" stroke="#3D4F5A" stroke-width="2" stroke-linecap="round" stroke-linejoin="round" stroke-miterlimit="10" d="
			M19.932,3.393c-1.844,1.844-3.618,3.62-5.393,5.396c-0.133,0.132-0.258,0.275-0.404,0.394c-0.478,0.397-1.02,0.401-1.417,0.019
			c-0.417-0.398-0.416-0.959,0.004-1.464c0.08-0.095,0.174-0.18,0.264-0.269c1.983-1.981,3.963-3.966,5.948-5.946
			c0.76-0.76,1.221-0.766,1.966-0.022c2.001,1.995,3.996,3.995,5.994,5.992c0.045,0.044,0.091,0.088,0.134,0.134
			c0.514,0.552,0.561,1.116,0.13,1.555c-0.429,0.438-1.019,0.411-1.552-0.11c-0.926-0.906-1.838-1.831-2.754-2.749
			C21.895,5.364,20.938,4.402,19.932,3.393z"/>
	</g>
</g>
<g id="xURkqP_19_">
	<g>
		
			<path fill-rule="evenodd" clip-rule="evenodd" fill="#3D4F5A" stroke="#3D4F5A" stroke-width="2" stroke-linecap="round" stroke-linejoin="round" stroke-miterlimit="10" d="
			M19.927,36.606c1.841-1.843,3.616-3.617,5.391-5.395c0.134-0.133,0.26-0.274,0.403-0.396c0.478-0.396,1.021-0.399,1.416-0.019
			c0.419,0.399,0.417,0.96-0.004,1.465c-0.078,0.096-0.175,0.18-0.263,0.269c-1.981,1.982-3.964,3.968-5.949,5.947
			c-0.759,0.761-1.219,0.766-1.966,0.021c-2-1.995-3.995-3.995-5.994-5.991c-0.043-0.045-0.089-0.089-0.133-0.134
			c-0.513-0.553-0.561-1.117-0.13-1.556c0.428-0.437,1.02-0.41,1.551,0.109c0.927,0.906,1.838,1.831,2.755,2.749
			C17.963,34.637,18.92,35.599,19.927,36.606z"/>
	</g>
</g>
<g id="xURkqP_18_">
	<g>
		
			<path fill-rule="evenodd" clip-rule="evenodd" fill="#3D4F5A" stroke="#3D4F5A" stroke-width="2" stroke-linecap="round" stroke-linejoin="round" stroke-miterlimit="10" d="
			M36.002,19.99c-1.855-1.833-3.641-3.598-5.427-5.362c-0.134-0.132-0.277-0.257-0.397-0.401c-0.399-0.476-0.404-1.017-0.026-1.417
			c0.395-0.419,0.958-0.42,1.465-0.003c0.096,0.079,0.183,0.173,0.27,0.263c1.994,1.97,3.989,3.94,5.981,5.914
			c0.764,0.756,0.772,1.215,0.032,1.966c-1.983,2.012-3.973,4.019-5.957,6.026c-0.046,0.047-0.088,0.093-0.134,0.134
			c-0.549,0.518-1.114,0.568-1.555,0.143c-0.439-0.426-0.416-1.019,0.101-1.553c0.901-0.935,1.82-1.849,2.735-2.771
			C34.043,21.964,34.997,21.002,36.002,19.99z"/>
	</g>
</g>
<g id="xURkqP_17_">
	<g>
		
			<path fill-rule="evenodd" clip-rule="evenodd" fill="#3D4F5A" stroke="#3D4F5A" stroke-width="2" stroke-linecap="round" stroke-linejoin="round" stroke-miterlimit="10" d="
			M4.001,20.117c1.853,1.833,3.639,3.597,5.425,5.362c0.133,0.133,0.276,0.258,0.396,0.401c0.4,0.477,0.406,1.018,0.028,1.417
			c-0.397,0.42-0.958,0.421-1.464,0.004c-0.098-0.081-0.183-0.173-0.271-0.262c-1.995-1.971-3.99-3.941-5.98-5.915
			c-0.765-0.756-0.773-1.216-0.034-1.968c1.984-2.01,3.974-4.017,5.959-6.025c0.043-0.045,0.086-0.092,0.132-0.134
			c0.548-0.516,1.114-0.568,1.554-0.142c0.439,0.427,0.416,1.019-0.102,1.554c-0.898,0.933-1.819,1.848-2.732,2.77
			C5.96,18.144,5.004,19.106,4.001,20.117z"/>
	</g>
</g>
<line fill-rule="evenodd" clip-rule="evenodd" fill="#3D4F5A" stroke="#3D4F5A" stroke-width="4.5" stroke-linecap="round" stroke-linejoin="round" stroke-miterlimit="10" x1="19.932" y1="3.393" x2="19.927" y2="36.697"/>
<line fill-rule="evenodd" clip-rule="evenodd" fill="#3D4F5A" stroke="#3D4F5A" stroke-width="4.5" stroke-linecap="round" stroke-linejoin="round" stroke-miterlimit="10" x1="36.002" y1="20.001" x2="3.5" y2="20.001"/>
</svg>
