<?xml version="1.0" encoding="utf-8"?>
<!-- Generator: Adobe Illustrator 16.0.0, SVG Export Plug-In . SVG Version: 6.00 Build 0)  -->
<!DOCTYPE svg PUBLIC "-//W3C//DTD SVG 1.1//EN" "http://www.w3.org/Graphics/SVG/1.1/DTD/svg11.dtd">
<svg version="1.1" id="Layer_1" xmlns="http://www.w3.org/2000/svg" xmlns:xlink="http://www.w3.org/1999/xlink" x="0px" y="0px"
	 width="40px" height="40px" viewBox="0 0 40 40" enable-background="new 0 0 40 40" xml:space="preserve">
<circle fill-rule="evenodd" clip-rule="evenodd" fill="none" stroke="#000000" stroke-width="4" stroke-linecap="round" stroke-miterlimit="10" cx="19.96" cy="20.043" r="17.824"/>
<g>
	<g id="xURkqP_10_">
		<g>
			<path fill-rule="evenodd" clip-rule="evenodd" stroke="#000000" stroke-miterlimit="10" d="M27.177,20.047
				c-2.909-2.909-5.709-5.707-8.511-8.507c-0.211-0.21-0.436-0.408-0.623-0.637c-0.626-0.754-0.631-1.609-0.031-2.237
				c0.63-0.656,1.513-0.654,2.309,0.009c0.152,0.127,0.285,0.275,0.424,0.416c3.13,3.127,6.26,6.252,9.384,9.384
				c1.196,1.2,1.206,1.924,0.033,3.102c-3.147,3.156-6.302,6.305-9.453,9.455c-0.071,0.07-0.139,0.143-0.211,0.209
				c-0.871,0.812-1.762,0.889-2.453,0.209c-0.692-0.676-0.648-1.611,0.172-2.449c1.429-1.461,2.89-2.898,4.337-4.346
				C24.068,23.143,25.586,21.633,27.177,20.047z"/>
		</g>
	</g>
	
		<line fill-rule="evenodd" clip-rule="evenodd" stroke="#000000" stroke-width="5" stroke-linecap="round" stroke-miterlimit="10" x1="27.177" y1="20.043" x2="11.724" y2="20.043"/>
</g>
</svg>
